Patient4_TMGait_0pt7_02_left_04_EMG.mot
version=1
nRows=27
nColumns=33
inDegrees=no
endheader
time	1LAddLong	2LGlutMax	3LGlutMed	4LIliopsoas	5LSemiMemb	6LBicFemLong	7LRecFem	8LVastMed	9LVastLat	10LGasMed	11LTibAnt	12lTibPost	13LPeroneusLong	14LSol	15LExtDigLong	16LFlexDigLong	17RAddLong	18RGlutMax	19RGlutMed	20RIliopsoas	21RSemiMemb	22RBicFemLong	23RRecFem	24RVastMed	25RVastLat	26RGasMed	27RTibAnt	28RTibPost	29RPeroneusLong	30RSol	31RExtDigLong	32RFlexDigLong
4.98	0.003967	-0.3981	-0.06546	-0.014038	-0.088501	0.039825	0.088654	0.015411	-0.068359	0.054169	0.00351	-0.51498	0.052948	-0.16602	0.01709	-0.10361	0.048828	0.36667	0.9787	0.051422	-1.1414	0.054169	0.1413	0.21805	0.25345	0.001221	0.26306	-0.009918	0.022583	-0.011597	-0.001678	0.001221
4.981	0.018616	-0.40192	-0.025787	0.007172	-0.037231	-0.085602	0.051727	0.00885	-0.063934	0.041046	-0.005341	0.019073	0.008392	-0.064697	0.009003	-0.10407	-0.070648	0.24735	1.0608	0.012665	-0.95688	-0.035095	0.074158	0.27557	0.57693	-0.000916	0.48218	-0.009766	-0.062256	-0.054474	-0.006104	0.002747
4.982	0.024719	-0.41321	-0.096436	0.003815	0.036163	-0.18692	0.027466	0.008392	-0.05661	0.005188	-0.005646	0.023041	0.023499	0.079498	0.00946	-0.10529	-0.070343	0.16876	0.79254	0.010834	-0.50507	0.007172	0.097046	0.76874	0.79971	-0.007019	0.50201	-0.008545	-0.087585	-0.06424	-0.003052	0.005646
4.983	0.022125	-0.42343	-0.1358	-0.031281	0.059357	-0.25681	0.078888	0.005646	-0.045776	-0.003052	-0.01236	-0.011902	0.045929	-0.063171	0.008392	-0.079193	-0.010071	0.1152	0.39551	0.014191	-0.28061	-0.20844	0.000763	0.75729	0.62637	-0.014954	0.78125	-0.008087	-0.15442	-0.046387	-0.001526	0
4.984	0.020447	-0.43778	-0.11124	-0.014801	0.0354	-0.17609	0.072784	0.008545	-0.054626	-0.031433	0.006256	-0.024872	0.035553	-0.25635	0.022736	-0.057526	0.027313	0.032959	0.46463	0.018921	-0.12772	-0.38727	-0.09491	0.62332	0.27176	-0.011902	0.39581	-0.009918	0.080872	-0.076599	-0.00412	0.010376
4.985	0.025177	-0.47852	-0.098267	0	-0.002441	-0.012512	0.053101	0.005798	-0.039673	-0.005646	0.001984	-0.025635	0.002289	-0.25284	0.007019	-0.040588	0.01709	-0.13443	0.58609	-0.016937	0.1561	-0.55466	-0.068054	0.36102	0.1474	0.005951	0.005798	-0.00473	0.35263	-0.13138	-0.000916	-0.010376
4.986	0.028839	-0.49362	-0.095978	-0.002747	0.071869	-0.009308	0.033112	-0.004425	-0.028992	0.033569	-0.008392	-0.053101	0.006409	-0.094604	0.011444	-0.041199	-0.042572	-0.26627	0.39856	0.024261	-0.2623	-0.62958	0.093689	-0.12894	0.27237	0.019684	-0.23071	-0.012512	0.18021	-0.19531	-0.002136	0.005341
4.987	0.024719	-0.46661	-0.090942	0.011444	0.072021	-0.06424	-0.019684	0.007019	-0.017242	-0.014648	-0.005188	-0.078125	0.014343	0.14877	0.032654	-0.024872	-0.045471	-0.3949	0.25848	-0.036774	-0.25803	-0.51437	0.28839	-0.69397	0.12726	0.00473	-0.64056	-0.008087	0.062256	-0.14755	0	0.001831
4.988	0.021973	-0.41748	-0.11429	0.039368	0.021667	-0.076294	-0.025482	-0.001831	-0.012665	0.046082	-0.016937	-0.056458	0.000458	0.34561	0.036011	-0.035095	-0.066223	-0.49957	0.23941	-0.11353	-0.11978	-0.32547	0.12726	-0.8252	0.24216	0.000153	-0.51193	-0.011444	-0.1004	-0.090332	-0.003052	-0.001221
4.989	0.023041	-0.4042	-0.11108	0.071259	-0.000916	-0.058136	-0.027771	-0.000458	-0.017548	0.29495	-0.041962	-0.036011	-0.018768	0.30197	0.035553	-0.021362	-0.10101	-0.513	0.30975	-0.13092	0.25162	0.042572	0.033264	-0.35004	0.18875	0.008392	-0.26489	-0.010681	-0.41443	-0.048828	-0.002594	0.005188
4.99	0.028381	-0.37338	-0.15488	0.027466	-0.012817	-0.080261	-0.036926	0.003357	-0.026093	0.60028	-0.039825	-0.038147	-0.005341	0.22522	0.029144	-0.020599	-0.063477	-0.48828	0.28503	-0.053101	0.34058	0.271	0.14801	-0.09491	-0.32196	0.014038	-0.35614	-0.013428	0.31708	-0.0177	-0.003967	-0.003204
4.991	0.024109	-0.38834	-0.14526	-0.038452	-0.001984	-0.074005	-0.022278	-0.000153	-0.046997	0.21133	-0.055847	-0.03006	0.015411	0.13382	0.019684	-0.008698	0.035553	-0.45959	0.30884	-0.019379	0.29678	0.43671	0.36087	-0.14999	-0.68359	0.001221	-0.13443	-0.007782	1.0139	0.023499	-0.002136	-0.005035
4.992	0.025482	-0.35797	-0.14145	-0.054932	0.009003	-0.069122	-0.050507	-0.004425	-0.057526	-0.27741	-0.070496	-0.023499	0.040894	0.14114	0.023193	-0.002136	0.003815	-0.3714	0.34866	0.09613	0.11185	0.35919	0.38055	0.15564	-0.51193	-0.020905	-0.24002	-0.011292	1.0089	0.046692	0.001831	0.005341
4.993	0.030212	-0.34393	-0.11307	-0.042114	-0.005188	-0.053406	-0.048523	-0.001221	-0.056915	-0.57465	0.025787	-0.014801	0.075989	0.14236	0.023804	0.010376	-0.053253	-0.20264	0.35507	0.1944	0.15152	0.61844	0.34943	0.080109	-0.001984	-0.036774	-0.27008	-0.012207	0.60715	0.15625	-0.004425	-0.008698
4.994	0.015564	-0.36468	-0.088654	0.019226	0.00351	0.013123	-0.000153	0.005188	-0.088959	-0.54474	0.093689	-0.008392	0.045013	0.080872	0.10452	-0.008392	-0.053253	-0.12543	0.37842	0.12558	0.071564	1.0262	0.14786	0.19623	-0.13428	-0.04715	-0.085449	-0.010834	0.11673	0.13062	-0.007935	-0.011292
4.995	0.006409	-0.37811	-0.051117	-0.002899	0.017242	0.11993	0.013733	0.012207	-0.087585	-0.26977	0.017548	-0.010223	0.044708	0.043945	0.11459	-0.001678	-0.02533	-0.17258	0.36972	0.079193	0.11078	0.79987	-0.44617	0.36911	-0.5632	-0.02655	-0.014191	-0.006256	-0.43579	0.11734	-0.000916	-0.00473
4.996	0.003357	-0.32776	-0.045013	0.020905	0.00824	0.21805	-0.018158	0.016937	-0.08316	-0.029907	-0.027161	-0.000153	0.030975	0.1445	0.076599	-0.003204	-0.016479	-0.19959	0.24994	0.050201	0.23926	0.35172	-0.56793	0.48996	-0.85541	0.047913	0.038757	-0.002289	-0.71014	0.14084	-0.003815	-0.01297
4.997	-0.004883	-0.32349	-0.023193	-0.00412	-0.025177	0.2298	-0.037079	0.018921	-0.066528	-0.066681	-0.029449	-0.010834	0.019531	0.13489	0.035706	-0.002899	0.009613	-0.39887	0.26596	-0.041962	0.42618	-0.06424	-0.057373	-0.083618	-1.0497	0.053406	-0.006409	-0.000305	-0.089264	0.084839	0.00061	-0.00473
4.998	-0.003357	-0.28122	-0.032806	0	-0.044403	0.19379	-0.066223	0.019989	-0.065918	-0.14206	-0.041199	-0.009003	0.009155	0.078125	0.012054	0.007629	0.037842	-0.47379	0.27374	-0.083466	0.13687	-0.2388	0.25848	-0.49301	-0.79422	0.027466	-0.033722	0.000458	0.19379	0.05722	0.005798	-0.007019
4.999	0.010071	-0.26001	-0.087585	-0.007172	-0.0737	0.20111	-0.10132	0.016937	-0.059662	-0.088348	-0.066528	-0.013275	0.022125	0.10254	-0.022888	0.006714	0.002594	-0.69061	0.25955	-0.057526	0.082245	-0.094452	0.34119	-0.32181	-0.42801	0.019836	-0.036926	-0.00351	-0.27039	0.12161	-0.001526	-0.003052
5	0.008545	-0.27771	-0.10193	0.006714	-0.011139	0.20798	-0.11063	0.009308	-0.045929	0.74509	-0.05188	-0.012054	0.022736	0.043488	-0.17929	-0.00412	0.006409	-0.8989	0.19882	0.016327	0.055084	0.059357	0.3038	-0.1828	-0.12741	0.013733	-0.010376	-0.001373	-0.52765	0.10086	0.000305	-0.000458
5.001	0.017242	-0.26886	-0.097656	-0.015564	0.010071	0.13947	-0.089264	0.010376	-0.036926	0.91156	-0.04837	-0.002136	-0.016327	-0.019684	-0.078278	0.002136	0.03891	-0.91644	0.15854	0.06073	-0.34378	0.14862	0.45013	-0.2803	0.10895	0.012665	0.027161	-0.002594	-0.3743	0.12283	-0.00061	-0.000305
5.002	0.018311	-0.26077	-0.11856	-0.007324	-0.016022	0.13123	-0.089264	-0.001678	-0.033875	0.009613	0.024414	0.008698	-0.067444	-0.041351	0.23789	0.00824	0.012817	-0.82794	0.21942	0.026855	-0.083313	0.14343	0.30624	-0.17654	0.11353	0.014496	0.026398	0.000763	-0.14618	0.12283	-0.001373	-0.002747
5.003	0.017242	-0.22705	-0.15289	-0.002441	-0.059662	0.13702	-0.11414	0.004425	-0.050964	-0.054321	0.12558	0.009918	-0.011139	-0.036469	0.3035	0.009308	-0.033264	-0.69382	0.37613	-0.008698	0.242	0.1651	0.11505	-0.032501	0.047913	0.011749	0.019379	0.004578	1.0083	0.087585	-0.001221	0.001221
5.004	0.020142	-0.19821	-0.1471	-0.020447	-0.051422	-0.014038	-0.09964	0.003662	-0.028687	-0.19394	0.12726	0.007782	0.14404	0.021515	-0.36255	-0.005493	-0.040894	-0.46066	0.29862	-0.10437	0.3688	0.19119	-0.11398	0.007019	-0.12482	0.009003	0.094299	-0.000763	0.72037	0.042877	-0.00061	-0.011292
5.005	0.034943	-0.18127	-0.15411	0.017242	0.057373	-0.10437	-0.097961	0.003967	-0.03006	-0.64377	0.055695	0.009918	0.054626	0.18631	-0.25421	-0.31387	-0.048828	-0.054626	0.18295	-0.17425	0.6807	0.20371	-0.033569	-0.091705	-0.18402	-0.000458	0.075378	-0.025177	0.41351	-0.13229	-0.001678	0.000153
5.006	0.041199	-0.11459	-0.1886	0.021057	0.12787	-0.071106	-0.094147	0.010681	-0.035706	-0.41	0.012512	0.016937	-0.099487	0.19669	-0.1738	-0.068512	0.021057	0.22812	0.1503	-0.40695	0.56335	0.29633	0.014191	0.000458	-0.35172	-0.012665	0.10544	-0.011749	-0.016937	-0.16907	-0.002289	-0.010986
